# xmcd CD database file
#
# Track frame offsets:
#	150
#	18248
#	52378
#	81954
#	106235
#	125125
#	141701
#	173293
#	205308
#	222499
#	237535
#	254011
#	268510
#	282991
#	298536
#	313993
#
# Disc length: 4418 seconds
#
# Revision: 0
# Processed by: cddbd v1.5.1PL0 Copyright (c) Steve Scherf et al.
# Submitted via: CDex 1.51
#
DISCID=0a114010
DTITLE=Miles Davis - A Proper Introduction to Miles Davis Enigma
DYEAR=2004
DGENRE=Jazz
TTITLE0=Conception
TTITLE1=Dig
TTITLE2=My Old Flame
TTITLE3=It's Only A Paper Moon
TTITLE4=Dear Old Stockholm
TTITLE5=Yesterdays
TTITLE6=The Serpent's Tooth
TTITLE7='Round About Midnight
TTITLE8=Tempus Fugit
TTITLE9=Enigma
TTITLE10=Ray's Idea
TTITLE11=Kelo
TTITLE12=C.T.A.
TTITLE13=I Waited For You
TTITLE14=When Lights Are Low
TTITLE15=Tune Up
EXTD=YEAR: 2004
EXTT0=
EXTT1=
EXTT2=
EXTT3=
EXTT4=
EXTT5=
EXTT6=
EXTT7=
EXTT8=
EXTT9=
EXTT10=
EXTT11=
EXTT12=
EXTT13=
EXTT14=
EXTT15=
PLAYORDER=
